{
	"asset":{
		"generator":"Khronos glTF Blender I/O v4.3.47",
		"version":"2.0"
	},
	"scene":0,
	"scenes":[
		{
			"name":"Scene",
			"nodes":[
				0
			]
		}
	],
	"nodes":[
		{
			"mesh":0,
			"name":"kukla02"
		}
	],
	"animations":[
		{
			"channels":[
				{
					"sampler":0,
					"target":{
						"node":0,
						"path":"translation"
					}
				},
				{
					"sampler":1,
					"target":{
						"node":0,
						"path":"rotation"
					}
				},
				{
					"sampler":2,
					"target":{
						"node":0,
						"path":"scale"
					}
				}
			],
			"name":"kukla02Action",
			"samplers":[
				{
					"input":4,
					"interpolation":"STEP",
					"output":5
				},
				{
					"input":6,
					"interpolation":"LINEAR",
					"output":7
				},
				{
					"input":4,
					"interpolation":"STEP",
					"output":8
				}
			]
		}
	],
	"materials":[
		{
			"doubleSided":true,
			"name":"kukla_pbr",
			"normalTexture":{
				"index":0
			},
			"pbrMetallicRoughness":{
				"baseColorTexture":{
					"index":1
				},
				"metallicFactor":0,
				"roughnessFactor":0.5
			}
		}
	],
	"meshes":[
		{
			"name":"Icosphere.004",
			"primitives":[
				{
					"attributes":{
						"POSITION":0,
						"NORMAL":1,
						"TEXCOORD_0":2
					},
					"indices":3,
					"material":0
				}
			]
		}
	],
	"textures":[
		{
			"sampler":0,
			"source":0
		},
		{
			"sampler":0,
			"source":1
		}
	],
	"images":[
		{
			"mimeType":"image/png",
			"name":"kukla_3k_normal.png",
			"uri":"kukla_3k_normal_png.png"
		},
		{
			"mimeType":"image/png",
			"name":"kukla_3k_diffuse.png",
			"uri":"kukla_3k_diffuse_png.png"
		}
	],
	"accessors":[
		{
			"bufferView":0,
			"componentType":5126,
			"count":3486,
			"max":[
				0.23273010551929474,
				1.7897615432739258,
				0.15496206283569336
			],
			"min":[
				-0.23273010551929474,
				0.0031860959716141224,
				-0.11011360585689545
			],
			"type":"VEC3"
		},
		{
			"bufferView":1,
			"componentType":5126,
			"count":3486,
			"type":"VEC3"
		},
		{
			"bufferView":2,
			"componentType":5126,
			"count":3486,
			"type":"VEC2"
		},
		{
			"bufferView":3,
			"componentType":5123,
			"count":12468,
			"type":"SCALAR"
		},
		{
			"bufferView":4,
			"componentType":5126,
			"count":2,
			"max":[
				4.166666666666667
			],
			"min":[
				0.041666666666666664
			],
			"type":"SCALAR"
		},
		{
			"bufferView":5,
			"componentType":5126,
			"count":2,
			"type":"VEC3"
		},
		{
			"bufferView":6,
			"componentType":5126,
			"count":100,
			"max":[
				4.166666666666667
			],
			"min":[
				0.041666666666666664
			],
			"type":"SCALAR"
		},
		{
			"bufferView":7,
			"componentType":5126,
			"count":100,
			"type":"VEC4"
		},
		{
			"bufferView":8,
			"componentType":5126,
			"count":2,
			"type":"VEC3"
		}
	],
	"bufferViews":[
		{
			"buffer":0,
			"byteLength":41832,
			"byteOffset":0,
			"target":34962
		},
		{
			"buffer":0,
			"byteLength":41832,
			"byteOffset":41832,
			"target":34962
		},
		{
			"buffer":0,
			"byteLength":27888,
			"byteOffset":83664,
			"target":34962
		},
		{
			"buffer":0,
			"byteLength":24936,
			"byteOffset":111552,
			"target":34963
		},
		{
			"buffer":0,
			"byteLength":8,
			"byteOffset":136488
		},
		{
			"buffer":0,
			"byteLength":24,
			"byteOffset":136496
		},
		{
			"buffer":0,
			"byteLength":400,
			"byteOffset":136520
		},
		{
			"buffer":0,
			"byteLength":1600,
			"byteOffset":136920
		},
		{
			"buffer":0,
			"byteLength":24,
			"byteOffset":138520
		}
	],
	"samplers":[
		{
			"magFilter":9729,
			"minFilter":9987
		}
	],
	"buffers":[
		{
			"byteLength":138544,
			"uri":"kukla02.bin"
		}
	]
}
