{
	"asset":{
		"generator":"Khronos glTF Blender I/O v4.4.56",
		"version":"2.0"
	},
	"scene":0,
	"scenes":[
		{
			"name":"Scene",
			"nodes":[
				0,
				1,
				2,
				3,
				4,
				5,
				6,
				7,
				8,
				9,
				10,
				11
			]
		}
	],
	"nodes":[
		{
			"mesh":0,
			"name":"frustum",
			"rotation":[
				0,
				0.7071068286895752,
				0,
				0.7071068286895752
			],
			"translation":[
				0.04255390912294388,
				0.03310644254088402,
				0.12274597585201263
			]
		},
		{
			"mesh":1,
			"name":"sphere",
			"rotation":[
				0,
				-0.943711519241333,
				0,
				0.3307698369026184
			],
			"translation":[
				2.6939384937286377,
				0,
				-3.923217296600342
			]
		},
		{
			"mesh":2,
			"name":"torus",
			"rotation":[
				0,
				0.7071068286895752,
				0,
				0.7071068286895752
			],
			"translation":[
				4.223426818847656,
				0,
				3.7186391353607178
			]
		},
		{
			"mesh":3,
			"name":"cylinder",
			"rotation":[
				0,
				0.7071068286895752,
				0,
				0.7071068286895752
			],
			"translation":[
				-5.6546406745910645,
				1.6762199401855469,
				1.9452009201049805
			]
		},
		{
			"mesh":4,
			"name":"mine",
			"rotation":[
				0,
				-0.6381056308746338,
				0,
				0.7699488401412964
			],
			"translation":[
				-1.7174875736236572,
				0,
				4.9236955642700195
			]
		},
		{
			"mesh":5,
			"name":"suzanne",
			"rotation":[
				-0.24541907012462616,
				0.577282190322876,
				0.1897706389427185,
				0.7553157210350037
			],
			"scale":[
				1.475970983505249,
				1.4759712219238281,
				1.4759711027145386
			],
			"translation":[
				-4.241379737854004,
				3.373203992843628,
				2.3226451873779297
			]
		},
		{
			"mesh":6,
			"name":"cube",
			"rotation":[
				0,
				-0.013993049040436745,
				0,
				0.9999021887779236
			],
			"scale":[
				0.5164153575897217,
				0.5164152979850769,
				0.5164153575897217
			],
			"translation":[
				4.701180458068848,
				0.5164152383804321,
				-1.2476253509521484
			]
		},
		{
			"mesh":7,
			"name":"cube.001",
			"rotation":[
				0,
				-0.013993049040436745,
				0,
				0.9999021887779236
			],
			"scale":[
				0.5164153575897217,
				0.5164152979850769,
				0.5164153575897217
			],
			"translation":[
				4.729499340057373,
				0.5164152383804321,
				-2.5219826698303223
			]
		},
		{
			"mesh":8,
			"name":"cube.002",
			"rotation":[
				0,
				-0.013993049040436745,
				0,
				0.9999021887779236
			],
			"scale":[
				0.5164153575897217,
				0.5164152979850769,
				0.5164153575897217
			],
			"translation":[
				5.900020122528076,
				0.5164152383804321,
				-1.332582950592041
			]
		},
		{
			"mesh":9,
			"name":"cube.003",
			"rotation":[
				0,
				-0.013993049040436745,
				0,
				0.9999021887779236
			],
			"scale":[
				0.5164153575897217,
				0.5164152979850769,
				0.5164153575897217
			],
			"translation":[
				5.92833948135376,
				0.5164152383804321,
				-2.6069397926330566
			]
		},
		{
			"mesh":10,
			"name":"cylinder-cone",
			"rotation":[
				0,
				0.7071068286895752,
				0,
				0.7071068286895752
			],
			"scale":[
				1.7216122150421143,
				1.7216122150421143,
				1.7216122150421143
			],
			"translation":[
				-3.8890204429626465,
				1.3138813972473145,
				-4.259615421295166
			]
		},
		{
			"mesh":11,
			"name":"dodecahedron",
			"rotation":[
				-0.054470207542181015,
				0.18996022641658783,
				-0.2702016532421112,
				0.9423052668571472
			],
			"scale":[
				1.314070463180542,
				1.314070463180542,
				1.314070701599121
			],
			"translation":[
				-0.13286852836608887,
				1.9733060598373413,
				0.168979674577713
			]
		}
	],
	"materials":[
		{
			"doubleSided":true,
			"name":"uv_material",
			"pbrMetallicRoughness":{
				"baseColorTexture":{
					"index":0
				},
				"metallicFactor":0,
				"roughnessFactor":0.5
			}
		}
	],
	"meshes":[
		{
			"name":"Cube",
			"primitives":[
				{
					"attributes":{
						"POSITION":0,
						"NORMAL":1,
						"TEXCOORD_0":2
					},
					"indices":3,
					"material":0
				}
			]
		},
		{
			"name":"Sphere",
			"primitives":[
				{
					"attributes":{
						"POSITION":4,
						"NORMAL":5,
						"TEXCOORD_0":6
					},
					"indices":7,
					"material":0
				}
			]
		},
		{
			"name":"Torus",
			"primitives":[
				{
					"attributes":{
						"POSITION":8,
						"NORMAL":9,
						"TEXCOORD_0":10
					},
					"indices":11,
					"material":0
				}
			]
		},
		{
			"name":"Cylinder",
			"primitives":[
				{
					"attributes":{
						"POSITION":12,
						"NORMAL":13,
						"TEXCOORD_0":14
					},
					"indices":15,
					"material":0
				}
			]
		},
		{
			"name":"Cube.002",
			"primitives":[
				{
					"attributes":{
						"POSITION":16,
						"NORMAL":17,
						"TEXCOORD_0":18
					},
					"indices":19,
					"material":0
				}
			]
		},
		{
			"name":"Suzanne",
			"primitives":[
				{
					"attributes":{
						"POSITION":20,
						"NORMAL":21,
						"TEXCOORD_0":22
					},
					"indices":23,
					"material":0
				}
			]
		},
		{
			"name":"Cube.004",
			"primitives":[
				{
					"attributes":{
						"POSITION":24,
						"NORMAL":25,
						"TEXCOORD_0":26
					},
					"indices":27,
					"material":0
				}
			]
		},
		{
			"name":"Cube.006",
			"primitives":[
				{
					"attributes":{
						"POSITION":28,
						"NORMAL":29,
						"TEXCOORD_0":30
					},
					"indices":27,
					"material":0
				}
			]
		},
		{
			"name":"Cube.007",
			"primitives":[
				{
					"attributes":{
						"POSITION":31,
						"NORMAL":32,
						"TEXCOORD_0":33
					},
					"indices":27,
					"material":0
				}
			]
		},
		{
			"name":"Cube.008",
			"primitives":[
				{
					"attributes":{
						"POSITION":34,
						"NORMAL":35,
						"TEXCOORD_0":36
					},
					"indices":27,
					"material":0
				}
			]
		},
		{
			"name":"Cylinder.002",
			"primitives":[
				{
					"attributes":{
						"POSITION":37,
						"NORMAL":38,
						"TEXCOORD_0":39
					},
					"indices":40,
					"material":0
				}
			]
		},
		{
			"name":"Solid",
			"primitives":[
				{
					"attributes":{
						"POSITION":41,
						"NORMAL":42,
						"TEXCOORD_0":43
					},
					"indices":44,
					"material":0
				}
			]
		}
	],
	"textures":[
		{
			"sampler":0,
			"source":0
		}
	],
	"images":[
		{
			"mimeType":"image/png",
			"name":"grid_16-white-2k-color",
			"uri":"grid_16-white-2k-color.png"
		}
	],
	"accessors":[
		{
			"bufferView":0,
			"componentType":5126,
			"count":24,
			"max":[
				2.3175411224365234,
				1.964369535446167,
				2.3175411224365234
			],
			"min":[
				-2.3175411224365234,
				0,
				-2.3175411224365234
			],
			"type":"VEC3"
		},
		{
			"bufferView":1,
			"componentType":5126,
			"count":24,
			"type":"VEC3"
		},
		{
			"bufferView":2,
			"componentType":5126,
			"count":24,
			"type":"VEC2"
		},
		{
			"bufferView":3,
			"componentType":5123,
			"count":36,
			"type":"SCALAR"
		},
		{
			"bufferView":4,
			"componentType":5126,
			"count":559,
			"max":[
				2.305741786956787,
				4.06365442276001,
				2.1866986751556396
			],
			"min":[
				-1.7942698001861572,
				-0.03635978698730469,
				-1.913313865661621
			],
			"type":"VEC3"
		},
		{
			"bufferView":5,
			"componentType":5126,
			"count":559,
			"type":"VEC3"
		},
		{
			"bufferView":6,
			"componentType":5126,
			"count":559,
			"type":"VEC2"
		},
		{
			"bufferView":7,
			"componentType":5123,
			"count":2880,
			"type":"SCALAR"
		},
		{
			"bufferView":8,
			"componentType":5126,
			"count":637,
			"max":[
				2.596921682357788,
				1.420413851737976,
				2.586630344390869
			],
			"min":[
				-2.57633900642395,
				-0.0661553144454956,
				-2.5866305828094482
			],
			"type":"VEC3"
		},
		{
			"bufferView":9,
			"componentType":5126,
			"count":637,
			"type":"VEC3"
		},
		{
			"bufferView":10,
			"componentType":5126,
			"count":637,
			"type":"VEC2"
		},
		{
			"bufferView":11,
			"componentType":5123,
			"count":3456,
			"type":"SCALAR"
		},
		{
			"bufferView":12,
			"componentType":5126,
			"count":130,
			"max":[
				1.6787569522857666,
				1.6762200593948364,
				1.6787569522857666
			],
			"min":[
				-1.6787569522857666,
				-1.6762200593948364,
				-1.6787569522857666
			],
			"type":"VEC3"
		},
		{
			"bufferView":13,
			"componentType":5126,
			"count":130,
			"type":"VEC3"
		},
		{
			"bufferView":14,
			"componentType":5126,
			"count":130,
			"type":"VEC2"
		},
		{
			"bufferView":15,
			"componentType":5123,
			"count":372,
			"type":"SCALAR"
		},
		{
			"bufferView":16,
			"componentType":5126,
			"count":120,
			"max":[
				2.912172794342041,
				3.4892354011535645,
				1.697056531906128
			],
			"min":[
				-0.9976920485496521,
				0,
				-1.6970562934875488
			],
			"type":"VEC3"
		},
		{
			"bufferView":17,
			"componentType":5126,
			"count":120,
			"type":"VEC3"
		},
		{
			"bufferView":18,
			"componentType":5126,
			"count":120,
			"type":"VEC2"
		},
		{
			"bufferView":19,
			"componentType":5123,
			"count":180,
			"type":"SCALAR"
		},
		{
			"bufferView":20,
			"componentType":5126,
			"count":8162,
			"max":[
				1.3281861543655396,
				1.7543400526046753,
				0.578951895236969
			],
			"min":[
				-1.3281855583190918,
				-0.15671834349632263,
				-1.0217558145523071
			],
			"type":"VEC3"
		},
		{
			"bufferView":21,
			"componentType":5126,
			"count":8162,
			"type":"VEC3"
		},
		{
			"bufferView":22,
			"componentType":5126,
			"count":8162,
			"type":"VEC2"
		},
		{
			"bufferView":23,
			"componentType":5123,
			"count":47232,
			"type":"SCALAR"
		},
		{
			"bufferView":24,
			"componentType":5126,
			"count":24,
			"max":[
				1,
				1,
				1
			],
			"min":[
				-1,
				-1,
				-1
			],
			"type":"VEC3"
		},
		{
			"bufferView":25,
			"componentType":5126,
			"count":24,
			"type":"VEC3"
		},
		{
			"bufferView":26,
			"componentType":5126,
			"count":24,
			"type":"VEC2"
		},
		{
			"bufferView":27,
			"componentType":5123,
			"count":36,
			"type":"SCALAR"
		},
		{
			"bufferView":28,
			"componentType":5126,
			"count":24,
			"max":[
				1,
				1,
				1
			],
			"min":[
				-1,
				-1,
				-1
			],
			"type":"VEC3"
		},
		{
			"bufferView":29,
			"componentType":5126,
			"count":24,
			"type":"VEC3"
		},
		{
			"bufferView":30,
			"componentType":5126,
			"count":24,
			"type":"VEC2"
		},
		{
			"bufferView":31,
			"componentType":5126,
			"count":24,
			"max":[
				1,
				1,
				1
			],
			"min":[
				-1,
				-1,
				-1
			],
			"type":"VEC3"
		},
		{
			"bufferView":32,
			"componentType":5126,
			"count":24,
			"type":"VEC3"
		},
		{
			"bufferView":33,
			"componentType":5126,
			"count":24,
			"type":"VEC2"
		},
		{
			"bufferView":34,
			"componentType":5126,
			"count":24,
			"max":[
				1,
				1,
				1
			],
			"min":[
				-1,
				-1,
				-1
			],
			"type":"VEC3"
		},
		{
			"bufferView":35,
			"componentType":5126,
			"count":24,
			"type":"VEC3"
		},
		{
			"bufferView":36,
			"componentType":5126,
			"count":24,
			"type":"VEC2"
		},
		{
			"bufferView":37,
			"componentType":5126,
			"count":130,
			"max":[
				1,
				2.266951560974121,
				1
			],
			"min":[
				-1,
				-0.7631691098213196,
				-1
			],
			"type":"VEC3"
		},
		{
			"bufferView":38,
			"componentType":5126,
			"count":130,
			"type":"VEC3"
		},
		{
			"bufferView":39,
			"componentType":5126,
			"count":130,
			"type":"VEC2"
		},
		{
			"bufferView":40,
			"componentType":5123,
			"count":372,
			"type":"SCALAR"
		},
		{
			"bufferView":41,
			"componentType":5126,
			"count":60,
			"max":[
				0.6227815747261047,
				1.6758946180343628,
				0.9341723322868347
			],
			"min":[
				-1.24556303024292,
				-0.19245004653930664,
				-0.9341723322868347
			],
			"type":"VEC3"
		},
		{
			"bufferView":42,
			"componentType":5126,
			"count":60,
			"type":"VEC3"
		},
		{
			"bufferView":43,
			"componentType":5126,
			"count":60,
			"type":"VEC2"
		},
		{
			"bufferView":44,
			"componentType":5123,
			"count":108,
			"type":"SCALAR"
		}
	],
	"bufferViews":[
		{
			"buffer":0,
			"byteLength":288,
			"byteOffset":0,
			"target":34962
		},
		{
			"buffer":0,
			"byteLength":288,
			"byteOffset":288,
			"target":34962
		},
		{
			"buffer":0,
			"byteLength":192,
			"byteOffset":576,
			"target":34962
		},
		{
			"buffer":0,
			"byteLength":72,
			"byteOffset":768,
			"target":34963
		},
		{
			"buffer":0,
			"byteLength":6708,
			"byteOffset":840,
			"target":34962
		},
		{
			"buffer":0,
			"byteLength":6708,
			"byteOffset":7548,
			"target":34962
		},
		{
			"buffer":0,
			"byteLength":4472,
			"byteOffset":14256,
			"target":34962
		},
		{
			"buffer":0,
			"byteLength":5760,
			"byteOffset":18728,
			"target":34963
		},
		{
			"buffer":0,
			"byteLength":7644,
			"byteOffset":24488,
			"target":34962
		},
		{
			"buffer":0,
			"byteLength":7644,
			"byteOffset":32132,
			"target":34962
		},
		{
			"buffer":0,
			"byteLength":5096,
			"byteOffset":39776,
			"target":34962
		},
		{
			"buffer":0,
			"byteLength":6912,
			"byteOffset":44872,
			"target":34963
		},
		{
			"buffer":0,
			"byteLength":1560,
			"byteOffset":51784,
			"target":34962
		},
		{
			"buffer":0,
			"byteLength":1560,
			"byteOffset":53344,
			"target":34962
		},
		{
			"buffer":0,
			"byteLength":1040,
			"byteOffset":54904,
			"target":34962
		},
		{
			"buffer":0,
			"byteLength":744,
			"byteOffset":55944,
			"target":34963
		},
		{
			"buffer":0,
			"byteLength":1440,
			"byteOffset":56688,
			"target":34962
		},
		{
			"buffer":0,
			"byteLength":1440,
			"byteOffset":58128,
			"target":34962
		},
		{
			"buffer":0,
			"byteLength":960,
			"byteOffset":59568,
			"target":34962
		},
		{
			"buffer":0,
			"byteLength":360,
			"byteOffset":60528,
			"target":34963
		},
		{
			"buffer":0,
			"byteLength":97944,
			"byteOffset":60888,
			"target":34962
		},
		{
			"buffer":0,
			"byteLength":97944,
			"byteOffset":158832,
			"target":34962
		},
		{
			"buffer":0,
			"byteLength":65296,
			"byteOffset":256776,
			"target":34962
		},
		{
			"buffer":0,
			"byteLength":94464,
			"byteOffset":322072,
			"target":34963
		},
		{
			"buffer":0,
			"byteLength":288,
			"byteOffset":416536,
			"target":34962
		},
		{
			"buffer":0,
			"byteLength":288,
			"byteOffset":416824,
			"target":34962
		},
		{
			"buffer":0,
			"byteLength":192,
			"byteOffset":417112,
			"target":34962
		},
		{
			"buffer":0,
			"byteLength":72,
			"byteOffset":417304,
			"target":34963
		},
		{
			"buffer":0,
			"byteLength":288,
			"byteOffset":417376,
			"target":34962
		},
		{
			"buffer":0,
			"byteLength":288,
			"byteOffset":417664,
			"target":34962
		},
		{
			"buffer":0,
			"byteLength":192,
			"byteOffset":417952,
			"target":34962
		},
		{
			"buffer":0,
			"byteLength":288,
			"byteOffset":418144,
			"target":34962
		},
		{
			"buffer":0,
			"byteLength":288,
			"byteOffset":418432,
			"target":34962
		},
		{
			"buffer":0,
			"byteLength":192,
			"byteOffset":418720,
			"target":34962
		},
		{
			"buffer":0,
			"byteLength":288,
			"byteOffset":418912,
			"target":34962
		},
		{
			"buffer":0,
			"byteLength":288,
			"byteOffset":419200,
			"target":34962
		},
		{
			"buffer":0,
			"byteLength":192,
			"byteOffset":419488,
			"target":34962
		},
		{
			"buffer":0,
			"byteLength":1560,
			"byteOffset":419680,
			"target":34962
		},
		{
			"buffer":0,
			"byteLength":1560,
			"byteOffset":421240,
			"target":34962
		},
		{
			"buffer":0,
			"byteLength":1040,
			"byteOffset":422800,
			"target":34962
		},
		{
			"buffer":0,
			"byteLength":744,
			"byteOffset":423840,
			"target":34963
		},
		{
			"buffer":0,
			"byteLength":720,
			"byteOffset":424584,
			"target":34962
		},
		{
			"buffer":0,
			"byteLength":720,
			"byteOffset":425304,
			"target":34962
		},
		{
			"buffer":0,
			"byteLength":480,
			"byteOffset":426024,
			"target":34962
		},
		{
			"buffer":0,
			"byteLength":216,
			"byteOffset":426504,
			"target":34963
		}
	],
	"samplers":[
		{
			"magFilter":9729,
			"minFilter":9987
		}
	],
	"buffers":[
		{
			"byteLength":426720,
			"uri":"outliner-testscene.bin"
		}
	]
}
