{
	"asset":{
		"generator":"Khronos glTF Blender I/O v4.3.47",
		"version":"2.0"
	},
	"scene":0,
	"scenes":[
		{
			"name":"Scene",
			"nodes":[
				0,
				1,
				2,
				3,
				4,
				5,
				6,
				7,
				8,
				9,
				10,
				11
			]
		}
	],
	"nodes":[
		{
			"mesh":0,
			"name":"frustum",
			"translation":[
				-0.12274598330259323,
				0.8523187637329102,
				0.9474360346794128
			]
		},
		{
			"mesh":1,
			"name":"sphere",
			"translation":[
				4.4751176834106445,
				2.0500071048736572,
				2.911163806915283
			]
		},
		{
			"mesh":2,
			"name":"torus",
			"translation":[
				-3.7186391353607178,
				0,
				5.1283087730407715
			]
		},
		{
			"mesh":3,
			"name":"cylinder",
			"translation":[
				-1.9452006816864014,
				0,
				-4.749758720397949
			]
		},
		{
			"mesh":4,
			"name":"mine",
			"rotation":[
				0,
				-0.9956448674201965,
				0,
				0.09322718530893326
			],
			"translation":[
				-4.9236955642700195,
				0,
				-0.8126057386398315
			]
		},
		{
			"mesh":5,
			"name":"suzanne",
			"rotation":[
				-0.3017348349094391,
				-0.1256362646818161,
				-0.04014812037348747,
				0.9442244172096252
			],
			"scale":[
				1.475970983505249,
				1.4759711027145386,
				1.475970983505249
			],
			"translation":[
				-1.86033296585083,
				4.076910972595215,
				-4.748177528381348
			]
		},
		{
			"mesh":6,
			"name":"cube.001",
			"rotation":[
				0,
				-0.7169321775436401,
				0,
				0.6971429586410522
			],
			"scale":[
				0.5164153575897217,
				0.5164152979850769,
				0.5164153575897217
			],
			"translation":[
				1.2476253509521484,
				0,
				5.606062412261963
			]
		},
		{
			"mesh":7,
			"name":"cube",
			"rotation":[
				0,
				-0.7169321775436401,
				0,
				0.6971429586410522
			],
			"scale":[
				0.5164153575897217,
				0.5164152979850769,
				0.5164153575897217
			],
			"translation":[
				2.5219826698303223,
				0,
				5.634381294250488
			]
		},
		{
			"mesh":8,
			"name":"cube.002",
			"rotation":[
				0,
				-0.7169321775436401,
				0,
				0.6971429586410522
			],
			"scale":[
				0.5164153575897217,
				0.5164152979850769,
				0.5164153575897217
			],
			"translation":[
				1.3325824737548828,
				0,
				6.804902076721191
			]
		},
		{
			"mesh":9,
			"name":"cube.003",
			"rotation":[
				0,
				-0.7169321775436401,
				0,
				0.6971429586410522
			],
			"scale":[
				0.5164153575897217,
				0.5164152979850769,
				0.5164153575897217
			],
			"translation":[
				2.6069397926330566,
				0,
				6.833221435546875
			]
		},
		{
			"mesh":10,
			"name":"cylinder-cone",
			"scale":[
				1.7216122150421143,
				1.7216122150421143,
				1.7216122150421143
			],
			"translation":[
				4.259615421295166,
				1.313881516456604,
				-2.984137535095215
			]
		},
		{
			"mesh":11,
			"name":"dodecahedron",
			"rotation":[
				0.15254519879817963,
				-0.5319883227348328,
				-0.22957772016525269,
				0.8006325364112854
			],
			"scale":[
				1.314070463180542,
				1.314070463180542,
				1.3140705823898315
			],
			"translation":[
				-0.06684906035661697,
				3.004883050918579,
				0.9693113565444946
			]
		}
	],
	"materials":[
		{
			"doubleSided":true,
			"name":"uv_material",
			"pbrMetallicRoughness":{
				"baseColorTexture":{
					"index":0
				},
				"metallicFactor":0,
				"roughnessFactor":0.5
			}
		}
	],
	"meshes":[
		{
			"name":"Cube",
			"primitives":[
				{
					"attributes":{
						"POSITION":0,
						"NORMAL":1,
						"TEXCOORD_0":2
					},
					"indices":3,
					"material":0
				}
			]
		},
		{
			"name":"Sphere",
			"primitives":[
				{
					"attributes":{
						"POSITION":4,
						"NORMAL":5,
						"TEXCOORD_0":6
					},
					"indices":7,
					"material":0
				}
			]
		},
		{
			"name":"Torus",
			"primitives":[
				{
					"attributes":{
						"POSITION":8,
						"NORMAL":9,
						"TEXCOORD_0":10
					},
					"indices":11,
					"material":0
				}
			]
		},
		{
			"name":"Cylinder",
			"primitives":[
				{
					"attributes":{
						"POSITION":12,
						"NORMAL":13,
						"TEXCOORD_0":14
					},
					"indices":15,
					"material":0
				}
			]
		},
		{
			"name":"Cube.002",
			"primitives":[
				{
					"attributes":{
						"POSITION":16,
						"NORMAL":17,
						"TEXCOORD_0":18
					},
					"indices":19,
					"material":0
				}
			]
		},
		{
			"name":"Suzanne",
			"primitives":[
				{
					"attributes":{
						"POSITION":20,
						"NORMAL":21,
						"TEXCOORD_0":22
					},
					"indices":23,
					"material":0
				}
			]
		},
		{
			"name":"Cube.004",
			"primitives":[
				{
					"attributes":{
						"POSITION":24,
						"NORMAL":25,
						"TEXCOORD_0":26
					},
					"indices":27,
					"material":0
				}
			]
		},
		{
			"name":"Cube.006",
			"primitives":[
				{
					"attributes":{
						"POSITION":28,
						"NORMAL":29,
						"TEXCOORD_0":30
					},
					"indices":27,
					"material":0
				}
			]
		},
		{
			"name":"Cube.007",
			"primitives":[
				{
					"attributes":{
						"POSITION":31,
						"NORMAL":32,
						"TEXCOORD_0":33
					},
					"indices":27,
					"material":0
				}
			]
		},
		{
			"name":"Cube.008",
			"primitives":[
				{
					"attributes":{
						"POSITION":34,
						"NORMAL":35,
						"TEXCOORD_0":36
					},
					"indices":27,
					"material":0
				}
			]
		},
		{
			"name":"Cylinder.002",
			"primitives":[
				{
					"attributes":{
						"POSITION":37,
						"NORMAL":38,
						"TEXCOORD_0":39
					},
					"indices":40,
					"material":0
				}
			]
		},
		{
			"name":"Solid",
			"primitives":[
				{
					"attributes":{
						"POSITION":41,
						"NORMAL":42,
						"TEXCOORD_0":43
					},
					"indices":44,
					"material":0
				}
			]
		}
	],
	"textures":[
		{
			"sampler":0,
			"source":0
		}
	],
	"images":[
		{
			"mimeType":"image/png",
			"name":"linegrid-16_white_2k_color",
			"uri":"linegrid-16_white_2k_color.png"
		}
	],
	"accessors":[
		{
			"bufferView":0,
			"componentType":5126,
			"count":24,
			"max":[
				2.3175411224365234,
				1.1120507717132568,
				2.3175411224365234
			],
			"min":[
				-2.3175411224365234,
				-0.8523187637329102,
				-2.3175411224365234
			],
			"type":"VEC3"
		},
		{
			"bufferView":1,
			"componentType":5126,
			"count":24,
			"type":"VEC3"
		},
		{
			"bufferView":2,
			"componentType":5126,
			"count":24,
			"type":"VEC2"
		},
		{
			"bufferView":3,
			"componentType":5123,
			"count":36,
			"type":"SCALAR"
		},
		{
			"bufferView":4,
			"componentType":5126,
			"count":559,
			"max":[
				2.0500059127807617,
				2.0500071048736572,
				2.0500056743621826
			],
			"min":[
				-2.0500056743621826,
				-2.0500071048736572,
				-2.0500071048736572
			],
			"type":"VEC3"
		},
		{
			"bufferView":5,
			"componentType":5126,
			"count":559,
			"type":"VEC3"
		},
		{
			"bufferView":6,
			"componentType":5126,
			"count":559,
			"type":"VEC2"
		},
		{
			"bufferView":7,
			"componentType":5123,
			"count":2880,
			"type":"SCALAR"
		},
		{
			"bufferView":8,
			"componentType":5126,
			"count":637,
			"max":[
				2.586630344390869,
				1.4865691661834717,
				2.586630344390869
			],
			"min":[
				-2.586630344390869,
				0,
				-2.586630344390869
			],
			"type":"VEC3"
		},
		{
			"bufferView":9,
			"componentType":5126,
			"count":637,
			"type":"VEC3"
		},
		{
			"bufferView":10,
			"componentType":5126,
			"count":637,
			"type":"VEC2"
		},
		{
			"bufferView":11,
			"componentType":5123,
			"count":3456,
			"type":"SCALAR"
		},
		{
			"bufferView":12,
			"componentType":5126,
			"count":130,
			"max":[
				1.6787569522857666,
				3.352440118789673,
				1.6787569522857666
			],
			"min":[
				-1.6787569522857666,
				0,
				-1.6787569522857666
			],
			"type":"VEC3"
		},
		{
			"bufferView":13,
			"componentType":5126,
			"count":130,
			"type":"VEC3"
		},
		{
			"bufferView":14,
			"componentType":5126,
			"count":130,
			"type":"VEC2"
		},
		{
			"bufferView":15,
			"componentType":5123,
			"count":372,
			"type":"SCALAR"
		},
		{
			"bufferView":16,
			"componentType":5126,
			"count":120,
			"max":[
				1.954932451248169,
				3.4892354011535645,
				1.6970564126968384
			],
			"min":[
				-1.954932451248169,
				0,
				-1.6970564126968384
			],
			"type":"VEC3"
		},
		{
			"bufferView":17,
			"componentType":5126,
			"count":120,
			"type":"VEC3"
		},
		{
			"bufferView":18,
			"componentType":5126,
			"count":120,
			"type":"VEC2"
		},
		{
			"bufferView":19,
			"componentType":5123,
			"count":180,
			"type":"SCALAR"
		},
		{
			"bufferView":20,
			"componentType":5126,
			"count":556,
			"max":[
				1.3671875,
				0.984375,
				0.8515625
			],
			"min":[
				-1.3671875,
				-0.984375,
				-0.8515625
			],
			"type":"VEC3"
		},
		{
			"bufferView":21,
			"componentType":5126,
			"count":556,
			"type":"VEC3"
		},
		{
			"bufferView":22,
			"componentType":5126,
			"count":556,
			"type":"VEC2"
		},
		{
			"bufferView":23,
			"componentType":5123,
			"count":2904,
			"type":"SCALAR"
		},
		{
			"bufferView":24,
			"componentType":5126,
			"count":24,
			"max":[
				1,
				2,
				1
			],
			"min":[
				-1,
				0,
				-1
			],
			"type":"VEC3"
		},
		{
			"bufferView":25,
			"componentType":5126,
			"count":24,
			"type":"VEC3"
		},
		{
			"bufferView":26,
			"componentType":5126,
			"count":24,
			"type":"VEC2"
		},
		{
			"bufferView":27,
			"componentType":5123,
			"count":36,
			"type":"SCALAR"
		},
		{
			"bufferView":28,
			"componentType":5126,
			"count":24,
			"max":[
				1,
				2,
				1
			],
			"min":[
				-1,
				0,
				-1
			],
			"type":"VEC3"
		},
		{
			"bufferView":29,
			"componentType":5126,
			"count":24,
			"type":"VEC3"
		},
		{
			"bufferView":30,
			"componentType":5126,
			"count":24,
			"type":"VEC2"
		},
		{
			"bufferView":31,
			"componentType":5126,
			"count":24,
			"max":[
				1,
				2,
				1
			],
			"min":[
				-1,
				0,
				-1
			],
			"type":"VEC3"
		},
		{
			"bufferView":32,
			"componentType":5126,
			"count":24,
			"type":"VEC3"
		},
		{
			"bufferView":33,
			"componentType":5126,
			"count":24,
			"type":"VEC2"
		},
		{
			"bufferView":34,
			"componentType":5126,
			"count":24,
			"max":[
				1,
				2,
				1
			],
			"min":[
				-1,
				0,
				-1
			],
			"type":"VEC3"
		},
		{
			"bufferView":35,
			"componentType":5126,
			"count":24,
			"type":"VEC3"
		},
		{
			"bufferView":36,
			"componentType":5126,
			"count":24,
			"type":"VEC2"
		},
		{
			"bufferView":37,
			"componentType":5126,
			"count":192,
			"max":[
				1,
				2.266951560974121,
				1
			],
			"min":[
				-1,
				-0.7631691098213196,
				-1
			],
			"type":"VEC3"
		},
		{
			"bufferView":38,
			"componentType":5126,
			"count":192,
			"type":"VEC3"
		},
		{
			"bufferView":39,
			"componentType":5126,
			"count":192,
			"type":"VEC2"
		},
		{
			"bufferView":40,
			"componentType":5123,
			"count":372,
			"type":"SCALAR"
		},
		{
			"bufferView":41,
			"componentType":5126,
			"count":60,
			"max":[
				0.9341723322868347,
				0.9341723322868347,
				0.9341723322868347
			],
			"min":[
				-0.9341723322868347,
				-0.9341723322868347,
				-0.9341723322868347
			],
			"type":"VEC3"
		},
		{
			"bufferView":42,
			"componentType":5126,
			"count":60,
			"type":"VEC3"
		},
		{
			"bufferView":43,
			"componentType":5126,
			"count":60,
			"type":"VEC2"
		},
		{
			"bufferView":44,
			"componentType":5123,
			"count":108,
			"type":"SCALAR"
		}
	],
	"bufferViews":[
		{
			"buffer":0,
			"byteLength":288,
			"byteOffset":0,
			"target":34962
		},
		{
			"buffer":0,
			"byteLength":288,
			"byteOffset":288,
			"target":34962
		},
		{
			"buffer":0,
			"byteLength":192,
			"byteOffset":576,
			"target":34962
		},
		{
			"buffer":0,
			"byteLength":72,
			"byteOffset":768,
			"target":34963
		},
		{
			"buffer":0,
			"byteLength":6708,
			"byteOffset":840,
			"target":34962
		},
		{
			"buffer":0,
			"byteLength":6708,
			"byteOffset":7548,
			"target":34962
		},
		{
			"buffer":0,
			"byteLength":4472,
			"byteOffset":14256,
			"target":34962
		},
		{
			"buffer":0,
			"byteLength":5760,
			"byteOffset":18728,
			"target":34963
		},
		{
			"buffer":0,
			"byteLength":7644,
			"byteOffset":24488,
			"target":34962
		},
		{
			"buffer":0,
			"byteLength":7644,
			"byteOffset":32132,
			"target":34962
		},
		{
			"buffer":0,
			"byteLength":5096,
			"byteOffset":39776,
			"target":34962
		},
		{
			"buffer":0,
			"byteLength":6912,
			"byteOffset":44872,
			"target":34963
		},
		{
			"buffer":0,
			"byteLength":1560,
			"byteOffset":51784,
			"target":34962
		},
		{
			"buffer":0,
			"byteLength":1560,
			"byteOffset":53344,
			"target":34962
		},
		{
			"buffer":0,
			"byteLength":1040,
			"byteOffset":54904,
			"target":34962
		},
		{
			"buffer":0,
			"byteLength":744,
			"byteOffset":55944,
			"target":34963
		},
		{
			"buffer":0,
			"byteLength":1440,
			"byteOffset":56688,
			"target":34962
		},
		{
			"buffer":0,
			"byteLength":1440,
			"byteOffset":58128,
			"target":34962
		},
		{
			"buffer":0,
			"byteLength":960,
			"byteOffset":59568,
			"target":34962
		},
		{
			"buffer":0,
			"byteLength":360,
			"byteOffset":60528,
			"target":34963
		},
		{
			"buffer":0,
			"byteLength":6672,
			"byteOffset":60888,
			"target":34962
		},
		{
			"buffer":0,
			"byteLength":6672,
			"byteOffset":67560,
			"target":34962
		},
		{
			"buffer":0,
			"byteLength":4448,
			"byteOffset":74232,
			"target":34962
		},
		{
			"buffer":0,
			"byteLength":5808,
			"byteOffset":78680,
			"target":34963
		},
		{
			"buffer":0,
			"byteLength":288,
			"byteOffset":84488,
			"target":34962
		},
		{
			"buffer":0,
			"byteLength":288,
			"byteOffset":84776,
			"target":34962
		},
		{
			"buffer":0,
			"byteLength":192,
			"byteOffset":85064,
			"target":34962
		},
		{
			"buffer":0,
			"byteLength":72,
			"byteOffset":85256,
			"target":34963
		},
		{
			"buffer":0,
			"byteLength":288,
			"byteOffset":85328,
			"target":34962
		},
		{
			"buffer":0,
			"byteLength":288,
			"byteOffset":85616,
			"target":34962
		},
		{
			"buffer":0,
			"byteLength":192,
			"byteOffset":85904,
			"target":34962
		},
		{
			"buffer":0,
			"byteLength":288,
			"byteOffset":86096,
			"target":34962
		},
		{
			"buffer":0,
			"byteLength":288,
			"byteOffset":86384,
			"target":34962
		},
		{
			"buffer":0,
			"byteLength":192,
			"byteOffset":86672,
			"target":34962
		},
		{
			"buffer":0,
			"byteLength":288,
			"byteOffset":86864,
			"target":34962
		},
		{
			"buffer":0,
			"byteLength":288,
			"byteOffset":87152,
			"target":34962
		},
		{
			"buffer":0,
			"byteLength":192,
			"byteOffset":87440,
			"target":34962
		},
		{
			"buffer":0,
			"byteLength":2304,
			"byteOffset":87632,
			"target":34962
		},
		{
			"buffer":0,
			"byteLength":2304,
			"byteOffset":89936,
			"target":34962
		},
		{
			"buffer":0,
			"byteLength":1536,
			"byteOffset":92240,
			"target":34962
		},
		{
			"buffer":0,
			"byteLength":744,
			"byteOffset":93776,
			"target":34963
		},
		{
			"buffer":0,
			"byteLength":720,
			"byteOffset":94520,
			"target":34962
		},
		{
			"buffer":0,
			"byteLength":720,
			"byteOffset":95240,
			"target":34962
		},
		{
			"buffer":0,
			"byteLength":480,
			"byteOffset":95960,
			"target":34962
		},
		{
			"buffer":0,
			"byteLength":216,
			"byteOffset":96440,
			"target":34963
		}
	],
	"samplers":[
		{
			"magFilter":9729,
			"minFilter":9987
		}
	],
	"buffers":[
		{
			"byteLength":96656,
			"uri":"outliner-testscene.bin"
		}
	]
}
